<svg width="250" height="38" viewBox="0 0 250 38" fill="none" xmlns="http://www.w3.org/2000/svg">
<g id="brit-co-5317930631ee67760bfc333941f2433f37284d57171a3d55d909b44b2511c35c 1" clip-path="url(#clip0_106_4)">
<g id="Group">
<path id="Vector" d="M0 0.431641L13.045 0.893636C13.2485 0.912778 13.45 0.951805 13.6467 1.01021C21.5466 2.90137 23.9001 9.71473 19.0743 16.6878C18.9548 16.9009 18.8508 17.1231 18.7632 17.3528C23.5113 19.8614 25.1567 24.015 24.1498 29.3258C23.7196 31.5243 22.5885 33.501 20.9449 34.9268C19.3012 36.3527 17.2441 37.1417 15.1161 37.1624C10.0788 37.2948 5.04008 37.4287 0 37.564V0.431641ZM7.22857 21.256V29.1056C7.22857 29.6626 7.30634 30.2196 7.37183 31.0313C9.66402 31.0313 11.8743 31.2429 14.0683 30.9708C16.2622 30.6988 17.1095 28.9761 17.0154 26.1091C16.9253 23.3328 16.0085 21.8864 13.8554 21.6187C11.7925 21.3596 9.69267 21.3769 7.22857 21.256ZM7.36774 14.9737C11.6165 15.2846 13.7122 14.8744 14.0642 13.225C14.3957 11.6707 14.5472 9.52043 13.7818 8.37624C12.2632 6.10944 9.65174 7.08092 7.36774 6.93844V14.9737Z" fill="#5BBB7B"/>
<path id="Vector_2" d="M201.667 18.9982C201.594 8.67885 209.473 0.0390989 219.006 0.000239448C228.83 -0.0515731 236.934 8.31184 236.996 18.5664C237.057 29.2959 229.219 37.8623 219.309 37.927C209.657 37.9961 201.745 29.5118 201.667 18.9982ZM219.227 7.77213C217.845 7.76624 216.475 8.05097 215.198 8.60968C213.922 9.16839 212.763 9.98987 211.791 11.0262C210.818 12.0624 210.051 13.2927 209.534 14.6452C209.018 15.9977 208.762 17.4452 208.781 18.9032C208.781 25.2761 213.37 30.2156 219.297 30.2027C220.698 30.2085 222.086 29.9202 223.38 29.3546C224.675 28.789 225.849 27.9573 226.836 26.9081C227.823 25.8589 228.601 24.6131 229.127 23.2432C229.653 21.8734 229.915 20.4069 229.898 18.9291C229.912 17.4515 229.645 15.9859 229.112 14.6191C228.58 13.2523 227.793 12.0121 226.798 10.9718C225.803 9.93156 224.62 9.11239 223.32 8.56279C222.019 8.01319 220.628 7.74434 219.227 7.77213Z" fill="#5BBB7B"/>
<path id="Vector_3" d="M62.6258 37.5641C59.5314 37.5641 57.0263 37.6634 54.5377 37.495C53.9319 37.4518 53.2237 36.6315 52.8308 36.0011C50.3749 31.9813 47.964 27.9054 45.5449 23.851L45.0374 24.0194V37.4043H37.8579V0.375614C43.1791 0.522417 48.4142 -0.241819 53.5103 1.55867C57.4234 2.94034 59.6501 6.11818 59.8179 10.4273C60.028 15.7006 58.1451 19.2728 54.1693 21.1438C53.6167 21.4029 53.0396 21.6058 52.1882 21.9512L62.6258 37.5641ZM45.0251 17.327C47.7266 17.0938 50.4404 17.4651 51.9835 14.7968C52.97 13.0999 53.2729 10.9929 52.0367 9.30033C50.2521 6.8565 47.5874 7.46962 45.0128 7.4394L45.0251 17.327Z" fill="#5BBB7B"/>
<path id="Vector_4" d="M192.789 10.3028C186.891 8.10511 181.095 5.12157 176.302 11.827C173.199 16.1447 173.408 21.9736 176.56 26.2438C180.039 30.9588 183.518 31.2567 192.785 27.5694C192.785 29.8448 192.826 32.0555 192.748 34.2618C192.721 34.5251 192.638 34.7785 192.505 35.0029C192.371 35.2273 192.192 35.4168 191.979 35.5571C182.699 40.1037 171.304 37.2842 167.763 26.0582C165.197 17.7941 167.121 6.47733 176.257 2.00849C180.919 -0.27126 185.724 -0.202176 190.579 1.24426C192.216 1.73216 193.035 2.71228 192.846 4.69843C192.658 6.47733 192.789 8.2735 192.789 10.3028Z" fill="#5BBB7B"/>
<path id="Vector_5" d="M116.656 0.164062V7.68552H109.755V37.3871H102.555V7.70279H95.6947V0.164062H116.656Z" fill="#5BBB7B"/>
<path id="Vector_6" d="M144.899 22.5252V33.5786H137.981C137.981 30.6166 137.834 27.6201 138.035 24.6495C138.162 22.7713 137.474 22.4518 135.959 22.4907C133.184 22.5727 130.401 22.5123 127.364 22.5123C127.364 20.3836 127.274 18.3889 127.433 16.4113C127.47 15.9796 128.342 15.2585 128.858 15.2326C131.375 15.1074 133.901 15.116 136.418 15.2024C137.687 15.2456 138.084 14.7706 138.055 13.4753C137.99 10.5349 138.055 7.59457 138.055 4.42969H144.78V15.1808H155.226V22.5209L144.899 22.5252Z" fill="#5BBB7B"/>
<path id="Vector_7" d="M75.5316 0.49707H82.4491V37.3963H75.5316V0.49707Z" fill="#5BBB7B"/>
</g>
</g>
<defs>
<clipPath id="clip0_106_4">
<rect width="250" height="37.9441" fill="white"/>
</clipPath>
</defs>
</svg>
