<svg width="384" height="52" viewBox="0 0 384 52" fill="none" xmlns="http://www.w3.org/2000/svg">
<path d="M28.7189 6.03203C28.7189 1.87203 24.7649 0.832031 21.6432 0.832031V1.45603C23.5162 1.45603 24.973 2.08003 24.973 3.53603C24.973 4.36803 24.3487 5.61603 22.4757 5.61603C21.0189 5.61603 17.8973 4.78403 15.6081 3.95203C12.9027 2.91203 10.4054 2.08003 8.32433 2.08003C4.16216 2.08003 1.24865 5.20003 1.24865 8.73603C1.24865 11.856 3.53784 12.896 4.37027 13.312L4.57838 12.896C4.16216 12.48 3.53784 12.064 3.53784 10.816C3.53784 9.98403 4.37027 8.52803 6.45135 8.52803C8.32433 8.52803 10.8216 9.36003 14.1514 10.4C17.0649 11.232 20.1865 11.856 21.8514 12.064V18.512L18.7297 21.216V21.424L21.8514 24.128V33.072C20.1865 34.112 18.3135 34.32 16.6487 34.32C13.527 34.32 10.8216 33.488 8.53243 30.992L17.0649 26.832V12.48L6.65946 17.056C7.49189 14.352 9.78108 12.48 12.0703 11.232L11.8622 10.608C5.61892 12.272 0 18.096 0 25.168C0 33.488 6.86757 39.728 14.5676 39.728C22.8919 39.728 28.3027 33.072 28.3027 26.208H27.8865C26.6378 28.912 24.7649 31.408 22.4757 32.656V24.128L25.8054 21.424V21.216L22.4757 18.512V12.064C25.5973 12.064 28.7189 9.98403 28.7189 6.03203ZM10.6135 28.912L8.11622 30.16C6.65946 28.288 5.82703 25.792 5.82703 22.256C5.82703 20.8 5.82703 19.136 6.24324 17.888L10.6135 16.016V28.912ZM32.673 33.696L29.9676 35.776L30.3838 36.192L31.6324 35.152L36.2108 39.312L42.4541 35.152L42.2459 34.736L40.5811 35.776L38.5 33.696V19.552L40.1649 18.304L43.7027 21.216V33.904C43.7027 41.808 42.0378 43.056 38.5 44.304V44.928C44.327 45.136 49.7378 43.264 49.7378 33.072V19.344L51.6108 17.888L51.1946 17.472L49.5297 18.72L44.327 14.352L38.5 18.72V1.66403H38.0838L30.8 6.65603V7.07203C31.6324 7.48803 32.8811 7.90403 32.8811 10.192L32.673 33.696ZM70.7568 31.408L65.5541 35.36L60.3514 31.2V28.704L70.1324 22.048V21.84L65.1378 14.352L54.3162 20.176V33.904L52.2351 35.568L52.6514 35.984L54.5243 34.528L61.6 39.728L70.9649 32.24L70.7568 31.408ZM60.3514 27.872V17.68L60.7676 17.472L65.346 24.752L60.3514 27.872ZM110.505 4.16003C110.505 3.53603 110.297 2.91203 110.089 2.28803H109.673C109.049 3.95203 108.216 4.78403 106.135 4.78403C104.262 4.78403 103.014 3.74403 102.181 2.91203L96.146 9.77603L96.5622 10.192L98.6433 8.32003C99.8919 9.36003 100.932 10.192 103.846 10.4V27.664L91.5676 6.65603C90.527 4.99203 89.0703 2.70403 86.1568 2.70403C82.827 2.70403 79.9135 5.61603 80.3297 10.192H80.9541C81.1622 8.94403 81.7865 7.48803 83.2433 7.48803C84.2838 7.48803 85.3243 8.52803 85.9487 9.56803V16.432C82.2027 16.432 79.7054 18.096 79.7054 21.216C79.7054 22.88 80.5378 25.376 83.0351 26V25.584C82.6189 25.168 82.4108 24.752 82.4108 24.128C82.4108 23.088 83.2433 22.256 84.7 22.256H85.7406V30.992C81.3703 30.992 77.8325 33.488 77.8325 37.648C77.8325 41.6 81.1622 43.472 84.9081 43.264V42.848C82.6189 42.64 81.5784 41.6 81.5784 40.144C81.5784 38.272 82.827 37.44 84.4919 37.44C86.1568 37.44 87.6135 38.48 88.6541 39.728L94.6892 33.072L94.273 32.656L92.8162 34.32C90.527 32.24 89.2784 31.616 86.573 31.2V10.4L103.222 39.52H104.47V10.4C107.592 10.192 110.505 7.69603 110.505 4.16003ZM125.697 31.408L120.495 35.36L115.292 31.2V28.704L125.073 22.048V21.84L120.078 14.352L109.257 20.176V33.904L107.176 35.568L107.592 35.984L109.465 34.528L116.541 39.728L125.905 32.24L125.697 31.408ZM115.292 27.872V17.68L115.708 17.472L120.286 24.752L115.292 27.872ZM159.619 16.64L158.162 17.68L154.208 14.352L149.63 18.512L151.503 20.384V35.984L146.508 32.864V19.968L148.173 18.928L143.387 14.352L138.808 18.512L140.681 20.384V35.36L140.057 35.776L135.686 32.656V20.176C135.686 17.264 134.23 16.432 132.565 15.392C131.108 14.352 130.276 13.728 130.276 12.272C130.276 11.024 131.524 10.4 132.149 9.98403V9.56803C130.484 9.56803 126.114 11.232 126.114 15.184C126.114 17.264 127.154 18.096 128.195 19.136C129.235 20.176 130.276 21.008 130.276 22.88V34.944L127.987 36.608L128.403 37.024L130.484 35.36L135.27 39.52L140.473 35.984L146.3 39.52L157.33 33.072V19.136L160.035 17.056L159.619 16.64ZM198.327 5.20003L196.246 7.07203L191.668 2.91203L184.8 7.90403V3.32803H184.176L184.384 37.024C183.759 37.024 181.887 36.608 180.43 36.192L180.014 8.11203C180.014 6.03203 178.557 3.12003 174.811 3.12003C171.065 3.12003 168.568 6.03203 168.568 8.94403H169.192C169.4 7.69603 170.024 6.65603 171.273 6.65603C172.522 6.65603 173.562 7.48803 173.562 10.192V18.304C169.816 18.512 167.527 20.592 167.527 23.296C167.527 24.96 168.359 27.456 170.857 27.456V27.04C170.024 26.624 169.816 26 169.816 25.584C169.816 24.336 170.857 23.92 172.522 23.92H173.354V36.816C170.232 37.856 168.984 40.144 168.984 42.64C168.984 46.176 171.689 48.672 175.851 48.672C178.765 48.672 181.262 48.256 183.759 47.632C185.841 47.216 188.546 46.592 189.795 46.592C191.459 46.592 192.084 47.424 192.084 48.464C192.084 49.92 191.459 50.544 190.627 50.752V51.168C193.957 50.544 196.038 48.464 196.038 45.344C196.038 42.224 192.916 40.352 189.587 40.352C187.922 40.352 184.384 40.976 181.887 41.392C178.973 42.016 176.059 42.432 175.227 42.432C173.77 42.432 172.105 41.808 172.105 39.728C172.105 38.064 173.562 36.608 177.1 36.608C178.973 36.608 181.262 36.816 183.551 37.44C186.049 38.064 188.338 38.688 190.419 38.688C193.541 38.688 196.246 37.648 196.246 33.28V7.69603L198.743 5.61603L198.327 5.20003ZM189.795 17.888C189.17 18.512 188.338 19.136 187.297 19.136C186.257 19.136 185.216 18.512 184.8 17.888V8.73603L186.881 7.28003L189.795 9.98403V17.888ZM189.795 24.128C189.378 23.712 188.338 23.088 187.297 23.088C186.257 23.088 185.216 23.712 184.8 24.128V18.72C185.216 19.136 186.257 19.76 187.297 19.76C188.338 19.76 189.378 19.136 189.795 18.72V24.128ZM189.795 33.904C189.795 35.568 188.754 37.232 186.465 37.232H184.8V24.96C185.216 24.544 186.257 23.92 187.297 23.92C188.338 23.92 189.17 24.544 189.795 24.96V33.904ZM218.305 19.136L211.646 14.352L201.449 20.176V33.696L199.368 35.36L199.576 35.776L201.241 34.528L207.9 39.52L218.305 33.28V19.136ZM207.068 32.24V17.264L212.27 21.008V35.776L207.068 32.24ZM238.076 14.768H237.659C237.035 15.184 236.411 15.6 235.787 15.6C234.954 15.6 233.914 15.184 233.497 14.56H233.081L229.543 18.512L226.005 14.56L219.762 18.72L219.97 19.136L221.635 18.096L223.716 20.384V33.488L221.011 35.568L221.427 35.984L222.676 34.944L227.67 39.104L234.122 34.736L233.914 34.32L232.041 35.36L229.543 33.28V18.72C230.584 19.76 231.832 20.8 233.289 20.8C236.203 21.008 237.868 18.096 238.076 14.768ZM263.049 34.736L255.973 39.52L246.4 24.96L253.268 14.352H253.684C254.516 15.184 255.765 16.016 257.222 16.016C258.678 16.016 259.719 15.184 260.343 14.352H260.759C260.551 18.512 257.638 21.008 255.557 21.008C253.476 21.008 252.435 19.968 251.187 19.344L250.562 20.384L260.968 35.776L263.049 34.528V34.736ZM240.157 33.696L237.451 35.776L237.868 36.192L239.116 35.152L243.695 39.312L249.938 35.152L249.522 34.736L247.857 35.776L245.776 33.696V1.66403H245.568L238.076 6.65603V7.07203C238.908 7.48803 240.157 7.69603 240.157 10.192V33.696ZM297.595 6.03203C297.595 1.87203 293.641 0.832031 290.519 0.832031V1.45603C292.392 1.45603 293.849 2.08003 293.849 3.53603C293.849 4.36803 293.224 5.61603 291.351 5.61603C289.895 5.61603 286.773 4.78403 284.484 3.95203C281.778 3.12003 279.281 2.28803 277.2 2.28803C273.038 2.28803 270.124 5.40803 270.124 8.94403C270.124 12.064 272.414 13.104 273.246 13.52L273.454 13.104C272.83 12.688 272.205 12.272 272.205 11.024C272.205 10.192 273.038 8.73603 275.119 8.73603C276.992 8.73603 279.489 9.56803 282.819 10.608C285.732 11.44 288.854 12.064 290.519 12.272V18.72L287.397 21.424V21.632L290.519 24.336V33.28C288.854 34.32 286.981 34.528 285.316 34.528C282.195 34.528 279.489 33.696 277.2 31.2L285.732 27.04V12.48L275.327 17.056C276.368 14.352 278.657 12.48 280.738 11.024L280.53 10.608C274.287 12.272 268.668 17.888 268.668 24.96C268.668 33.28 275.535 39.52 283.235 39.52C291.56 39.52 296.97 32.864 296.97 26H296.554C295.305 28.704 293.432 31.2 291.143 32.448V23.92L294.473 21.216V21.008L291.351 18.304V12.064C294.473 12.064 297.595 9.98403 297.595 6.03203ZM279.489 28.912L276.992 30.16C275.535 28.288 274.703 25.792 274.703 22.256C274.703 20.8 274.911 19.136 275.327 17.888L279.697 16.016L279.489 28.912ZM304.878 3.95203H304.67L300.508 7.48803V7.69603L304.046 11.648H304.462L308.624 8.11203V7.90403L304.878 3.95203ZM311.122 34.736L309.457 35.776L307.376 33.696V19.344L309.457 17.888L309.041 17.472L307.584 18.72L303.838 14.352L297.803 18.512L298.219 19.136L299.676 18.096L301.549 20.384V33.904L298.843 35.984L299.051 36.4L300.508 35.36L305.087 39.52L311.33 35.36L311.122 34.736ZM345.876 34.528L344.419 35.568L342.13 33.488V19.344L344.211 17.68L343.795 17.264L342.13 18.72L337.343 14.352L331.1 18.72L326.314 14.352L320.487 18.72L316.741 14.352L310.705 18.512L310.914 19.136L312.37 18.096L314.451 20.384V33.904L312.787 35.568L317.573 39.52L322.151 35.36L320.278 33.488V19.344L322.151 18.096L325.273 21.008V33.488L323.608 35.152L328.395 39.104L332.973 34.944L331.1 33.072V19.344L332.765 18.304L336.095 21.216V33.696L334.638 35.152L339.424 39.52L345.876 35.152V34.528ZM363.981 31.408L358.778 35.36L353.576 31.2V28.704L363.357 22.048V21.84L358.362 14.352L347.541 20.176V34.32L354.824 39.52L364.189 32.032L363.981 31.408ZM353.576 27.872V17.68L353.992 17.472L358.57 24.752L353.576 27.872ZM382.919 26L378.965 22.88C381.67 20.592 382.711 17.472 382.711 15.392V14.144H382.295C381.878 15.184 381.046 16.224 379.381 16.224C377.716 16.224 376.676 15.392 375.635 14.144L366.27 19.344V26.832L369.808 29.536C366.27 32.656 365.646 34.736 365.646 36.4C365.646 38.48 366.687 39.936 368.351 40.56L368.56 40.144C368.143 39.728 367.727 39.52 367.727 38.48C367.727 37.856 368.56 36.816 370.224 36.816C372.305 36.816 373.554 38.272 374.178 38.896L383.127 33.488V26H382.919ZM380.63 19.76C379.173 22.256 376.051 24.752 374.178 26L371.889 24.128V16.848C372.722 18.928 375.011 20.592 377.3 20.592C378.757 20.592 379.589 20.384 380.63 19.76ZM377.092 36.4C376.051 34.112 373.554 32.448 371.057 32.448C370.432 32.448 368.768 32.448 367.103 33.488C368.143 31.824 370.849 28.912 374.387 26.832L376.884 28.912L377.092 36.4Z" fill="#5BBB7B"/>
</svg>
