<svg width="45" height="45" viewBox="0 0 45 45" fill="none" xmlns="http://www.w3.org/2000/svg">
<circle cx="22.5" cy="22.5" r="22.5" fill="#1F4A40"/>
<path d="M21.288 31.192C20.104 31.192 18.952 31.008 17.832 30.64C16.728 30.272 15.824 29.776 15.12 29.152L16.224 27.256C16.784 27.784 17.512 28.216 18.408 28.552C19.304 28.888 20.264 29.056 21.288 29.056C22.536 29.056 23.504 28.792 24.192 28.264C24.896 27.72 25.248 26.992 25.248 26.08C25.248 25.2 24.912 24.496 24.24 23.968C23.584 23.424 22.536 23.152 21.096 23.152H19.752V21.472L24.744 15.328L25.08 16.288H15.888V14.2H26.976V15.832L22.008 21.952L20.76 21.208H21.552C23.584 21.208 25.104 21.664 26.112 22.576C27.136 23.488 27.648 24.648 27.648 26.056C27.648 27 27.416 27.864 26.952 28.648C26.488 29.432 25.784 30.056 24.84 30.52C23.912 30.968 22.728 31.192 21.288 31.192Z" fill="white"/>
</svg>
