<svg width="45" height="45" viewBox="0 0 45 45" fill="none" xmlns="http://www.w3.org/2000/svg">
<circle cx="22.5" cy="22.5" r="22.5" fill="#1F4A40"/>
<path d="M15.888 31V29.368L22.728 22.768C23.336 22.192 23.784 21.688 24.072 21.256C24.376 20.808 24.576 20.4 24.672 20.032C24.784 19.648 24.84 19.28 24.84 18.928C24.84 18.064 24.536 17.384 23.928 16.888C23.32 16.392 22.432 16.144 21.264 16.144C20.368 16.144 19.56 16.296 18.84 16.6C18.12 16.888 17.496 17.344 16.968 17.968L15.336 16.552C15.976 15.736 16.832 15.112 17.904 14.68C18.992 14.232 20.184 14.008 21.48 14.008C22.648 14.008 23.664 14.2 24.528 14.584C25.392 14.952 26.056 15.488 26.52 16.192C27 16.896 27.24 17.728 27.24 18.688C27.24 19.232 27.168 19.768 27.024 20.296C26.88 20.824 26.608 21.384 26.208 21.976C25.808 22.568 25.232 23.232 24.48 23.968L18.384 29.848L17.808 28.912H27.96V31H15.888Z" fill="white"/>
</svg>
